<?xml version="1.0" encoding="iso-8859-1"?>
<!-- Generator: Adobe Illustrator 19.0.0, SVG Export Plug-In . SVG Version: 6.00 Build 0)  -->
<svg xmlns="http://www.w3.org/2000/svg" xmlns:xlink="http://www.w3.org/1999/xlink" version="1.1" id="Layer_1" x="0px" y="0px" viewBox="0 0 512 512" style="enable-background:new 0 0 512 512;" xml:space="preserve" width="512px" height="512px">
<g>
	<g>
		<g>
			<path d="M501.353,131.68h-94.406v-4.347c0-18.053-14.687-32.74-32.74-32.74h-22.093v-8.949c0-5.88-4.768-10.647-10.647-10.647     h-42.589c-0.011,0-0.02,0.001-0.031,0.001H30.834c-4.797,0-9.001,3.208-10.269,7.834C6.853,132.89,0.317,187.9,0,256.051     c0.28,60.189,16.713,120.185,31.212,173.118c1.267,4.627,5.472,7.834,10.269,7.834h96.442c0.011,0,0.02-0.001,0.031-0.001h27.046     c5.879,0,10.647-4.767,10.647-10.647c0-5.88-4.768-10.647-10.647-10.647h-16.43v-37.264c0-5.88-4.768-10.647-10.647-10.647     h-29.026c-1.685-13.289-3.571-26.394-5.405-39.149c-2.363-16.427-4.611-32.124-6.442-47.903h13.69     c21.018,0,38.118-17.099,38.118-38.117v-20.719c47.325,4.985,96.789,1.357,139.371-10.196v54.934h-5.324     c-5.879,0-10.647,4.767-10.647,10.647v42.589c0,5.88,4.768,10.647,10.647,10.647h2.662v95.825c0,5.88,4.768,10.647,10.647,10.647     h47.912c5.879,0,10.647-4.767,10.647-10.647V330.53h2.662c5.879,0,10.647-4.767,10.647-10.647v-42.589     c0-5.88-4.768-10.647-10.647-10.647h-5.324v-70.905h22.093c18.053,0,32.74-14.687,32.74-32.74v-10.026h94.406     c5.879,0,10.647-4.767,10.647-10.647C512,136.447,507.232,131.68,501.353,131.68z M127.565,242.628     c0,9.276-7.547,16.823-16.824,16.823H94.884c-1.475-17.108-2.079-32.895-1.828-47.849c11.056,3.022,22.597,5.517,34.51,7.463     V242.628z M288.231,189.59c-44.659,13.118-98.312,16.69-148.569,9.76c-18.935-2.602-36.928-6.644-53.476-12.015     c-3.144-1.02-6.589-0.521-9.313,1.35c-2.727,1.872-4.428,4.904-4.605,8.207c-1.097,20.425-0.591,42.038,1.543,66.016     c0.229,2.75,0.5,5.501,0.772,8.241c0,0.003,0.001,0.006,0.001,0.01c0,0.002,0,0.005,0.001,0.007     c2.041,20.25,4.985,40.719,7.831,60.513c2.247,15.622,4.57,31.774,6.487,48.014c0.632,5.361,5.176,9.399,10.574,9.399h27.8     v26.617H83.195c-0.011,0-0.02,0.001-0.031,0.001H49.606c-13.577-49.705-28.059-105.26-28.312-159.659     c0.291-62.572,5.941-113.611,17.735-159.757h249.201V189.59z M309.525,197.441V96.291h21.294v170.355h-21.294V197.441z      M346.79,309.236h-2.662c-5.879,0-10.647,4.767-10.647,10.647v95.825h-26.618v-95.825c0-5.88-4.768-10.647-10.647-10.647h-2.662     v-21.294h5.324h42.589h5.324V309.236z M385.653,163.001c0,6.312-5.134,11.446-11.446,11.446h-20.496v-58.56h20.496     c6.312,0,11.446,5.134,11.446,11.446V163.001z" fill="#FFFFFF"/>
			<path d="M83.195,131.68h53.236c5.879,0,10.647-4.767,10.647-10.647s-4.768-10.647-10.647-10.647H83.195     c-5.879,0-10.647,4.767-10.647,10.647S77.316,131.68,83.195,131.68z" fill="#FFFFFF"/>
			<path d="M83.195,174.269h53.236c5.879,0,10.647-4.767,10.647-10.647c0-5.88-4.768-10.647-10.647-10.647H83.195     c-5.879,0-10.647,4.767-10.647,10.647C72.548,169.503,77.316,174.269,83.195,174.269z" fill="#FFFFFF"/>
			<path d="M173.114,174.269h17.746c5.879,0,10.647-4.768,10.647-10.647c0-5.88-4.768-10.647-10.647-10.647h-17.746     c-5.879,0-10.647,4.767-10.647,10.647C162.467,169.503,167.235,174.269,173.114,174.269z" fill="#FFFFFF"/>
		</g>
	</g>
</g>
<g>
</g>
<g>
</g>
<g>
</g>
<g>
</g>
<g>
</g>
<g>
</g>
<g>
</g>
<g>
</g>
<g>
</g>
<g>
</g>
<g>
</g>
<g>
</g>
<g>
</g>
<g>
</g>
<g>
</g>
</svg>
